<mxfile host="app.diagrams.net" agent="Mozilla/5.0 (Windows NT 10.0; Win64; x64) AppleWebKit/537.36 (KHTML, like Gecko) Chrome/128.0.0.0 Safari/537.36 OPR/114.0.0.0" version="25.0.1">
  <diagram name="Page-1" id="_XaK2hE0QZCgml8iWN2g">
    <mxGraphModel dx="1498" dy="743" grid="0" gridSize="10" guides="1" tooltips="1" connect="1" arrows="1" fold="1" page="1" pageScale="1" pageWidth="827" pageHeight="1169" math="0" shadow="0">
      <root>
        <mxCell id="0" />
        <mxCell id="1" parent="0" />
        <mxCell id="ZSj5ty7bktF3lgNFsP_j-61" value="Start" style="ellipse;whiteSpace=wrap;html=1;" vertex="1" parent="1">
          <mxGeometry x="100" y="170" width="100" height="60" as="geometry" />
        </mxCell>
        <mxCell id="ZSj5ty7bktF3lgNFsP_j-64" value="" style="edgeStyle=orthogonalEdgeStyle;rounded=0;orthogonalLoop=1;jettySize=auto;html=1;" edge="1" parent="1" source="ZSj5ty7bktF3lgNFsP_j-68" target="ZSj5ty7bktF3lgNFsP_j-73">
          <mxGeometry relative="1" as="geometry" />
        </mxCell>
        <mxCell id="ZSj5ty7bktF3lgNFsP_j-65" value="true" style="edgeLabel;html=1;align=center;verticalAlign=middle;resizable=0;points=[];" vertex="1" connectable="0" parent="ZSj5ty7bktF3lgNFsP_j-64">
          <mxGeometry x="-0.1" y="-1" relative="1" as="geometry">
            <mxPoint as="offset" />
          </mxGeometry>
        </mxCell>
        <mxCell id="ZSj5ty7bktF3lgNFsP_j-66" value="" style="edgeStyle=orthogonalEdgeStyle;rounded=0;orthogonalLoop=1;jettySize=auto;html=1;" edge="1" parent="1" source="ZSj5ty7bktF3lgNFsP_j-68" target="ZSj5ty7bktF3lgNFsP_j-85">
          <mxGeometry relative="1" as="geometry" />
        </mxCell>
        <mxCell id="ZSj5ty7bktF3lgNFsP_j-67" value="false" style="edgeLabel;html=1;align=center;verticalAlign=middle;resizable=0;points=[];" vertex="1" connectable="0" parent="ZSj5ty7bktF3lgNFsP_j-66">
          <mxGeometry x="-0.1754" y="-2" relative="1" as="geometry">
            <mxPoint x="1" as="offset" />
          </mxGeometry>
        </mxCell>
        <mxCell id="ZSj5ty7bktF3lgNFsP_j-68" value="i &amp;lt; array.length" style="rhombus;whiteSpace=wrap;html=1;" vertex="1" parent="1">
          <mxGeometry x="74.5" y="479" width="151" height="80" as="geometry" />
        </mxCell>
        <mxCell id="ZSj5ty7bktF3lgNFsP_j-69" value="" style="edgeStyle=orthogonalEdgeStyle;rounded=0;orthogonalLoop=1;jettySize=auto;html=1;" edge="1" parent="1" source="ZSj5ty7bktF3lgNFsP_j-73" target="ZSj5ty7bktF3lgNFsP_j-78">
          <mxGeometry relative="1" as="geometry" />
        </mxCell>
        <mxCell id="ZSj5ty7bktF3lgNFsP_j-70" value="true" style="edgeLabel;html=1;align=center;verticalAlign=middle;resizable=0;points=[];" vertex="1" connectable="0" parent="ZSj5ty7bktF3lgNFsP_j-69">
          <mxGeometry x="-0.225" y="2" relative="1" as="geometry">
            <mxPoint as="offset" />
          </mxGeometry>
        </mxCell>
        <mxCell id="ZSj5ty7bktF3lgNFsP_j-71" value="" style="edgeStyle=orthogonalEdgeStyle;rounded=0;orthogonalLoop=1;jettySize=auto;html=1;" edge="1" parent="1" source="ZSj5ty7bktF3lgNFsP_j-73" target="ZSj5ty7bktF3lgNFsP_j-83">
          <mxGeometry relative="1" as="geometry" />
        </mxCell>
        <mxCell id="ZSj5ty7bktF3lgNFsP_j-72" value="false" style="edgeLabel;html=1;align=center;verticalAlign=middle;resizable=0;points=[];" vertex="1" connectable="0" parent="ZSj5ty7bktF3lgNFsP_j-71">
          <mxGeometry x="-0.1685" y="-3" relative="1" as="geometry">
            <mxPoint x="1" as="offset" />
          </mxGeometry>
        </mxCell>
        <mxCell id="ZSj5ty7bktF3lgNFsP_j-73" value="j &amp;lt; array.length" style="rhombus;whiteSpace=wrap;html=1;" vertex="1" parent="1">
          <mxGeometry x="74.5" y="605" width="151" height="80" as="geometry" />
        </mxCell>
        <mxCell id="ZSj5ty7bktF3lgNFsP_j-74" value="" style="edgeStyle=orthogonalEdgeStyle;rounded=0;orthogonalLoop=1;jettySize=auto;html=1;" edge="1" parent="1" source="ZSj5ty7bktF3lgNFsP_j-78" target="ZSj5ty7bktF3lgNFsP_j-79">
          <mxGeometry relative="1" as="geometry" />
        </mxCell>
        <mxCell id="ZSj5ty7bktF3lgNFsP_j-75" value="true" style="edgeLabel;html=1;align=center;verticalAlign=middle;resizable=0;points=[];" vertex="1" connectable="0" parent="ZSj5ty7bktF3lgNFsP_j-74">
          <mxGeometry x="-0.1333" relative="1" as="geometry">
            <mxPoint as="offset" />
          </mxGeometry>
        </mxCell>
        <mxCell id="ZSj5ty7bktF3lgNFsP_j-76" value="" style="edgeStyle=orthogonalEdgeStyle;rounded=0;orthogonalLoop=1;jettySize=auto;html=1;" edge="1" parent="1" source="ZSj5ty7bktF3lgNFsP_j-78" target="ZSj5ty7bktF3lgNFsP_j-81">
          <mxGeometry relative="1" as="geometry" />
        </mxCell>
        <mxCell id="ZSj5ty7bktF3lgNFsP_j-77" value="false" style="edgeLabel;html=1;align=center;verticalAlign=middle;resizable=0;points=[];" vertex="1" connectable="0" parent="ZSj5ty7bktF3lgNFsP_j-76">
          <mxGeometry x="-0.2283" y="-1" relative="1" as="geometry">
            <mxPoint as="offset" />
          </mxGeometry>
        </mxCell>
        <mxCell id="ZSj5ty7bktF3lgNFsP_j-78" value="array[i][j] &amp;gt; max" style="rhombus;whiteSpace=wrap;html=1;" vertex="1" parent="1">
          <mxGeometry x="74.5" y="731" width="151" height="80" as="geometry" />
        </mxCell>
        <mxCell id="ZSj5ty7bktF3lgNFsP_j-79" value="max = array[i][j]" style="whiteSpace=wrap;html=1;" vertex="1" parent="1">
          <mxGeometry x="90" y="857" width="120" height="60" as="geometry" />
        </mxCell>
        <mxCell id="ZSj5ty7bktF3lgNFsP_j-80" style="edgeStyle=orthogonalEdgeStyle;rounded=0;orthogonalLoop=1;jettySize=auto;html=1;exitX=0.5;exitY=0;exitDx=0;exitDy=0;entryX=1;entryY=0.5;entryDx=0;entryDy=0;" edge="1" parent="1" source="ZSj5ty7bktF3lgNFsP_j-81" target="ZSj5ty7bktF3lgNFsP_j-73">
          <mxGeometry relative="1" as="geometry" />
        </mxCell>
        <mxCell id="ZSj5ty7bktF3lgNFsP_j-81" value="j = j + 1" style="whiteSpace=wrap;html=1;" vertex="1" parent="1">
          <mxGeometry x="289" y="741" width="120" height="60" as="geometry" />
        </mxCell>
        <mxCell id="ZSj5ty7bktF3lgNFsP_j-82" style="edgeStyle=orthogonalEdgeStyle;rounded=0;orthogonalLoop=1;jettySize=auto;html=1;exitX=0.5;exitY=0;exitDx=0;exitDy=0;entryX=0;entryY=0.5;entryDx=0;entryDy=0;" edge="1" parent="1" source="ZSj5ty7bktF3lgNFsP_j-83" target="ZSj5ty7bktF3lgNFsP_j-68">
          <mxGeometry relative="1" as="geometry" />
        </mxCell>
        <mxCell id="ZSj5ty7bktF3lgNFsP_j-83" value="i = i + 1" style="whiteSpace=wrap;html=1;" vertex="1" parent="1">
          <mxGeometry x="-90" y="615" width="120" height="60" as="geometry" />
        </mxCell>
        <mxCell id="ZSj5ty7bktF3lgNFsP_j-84" value="" style="edgeStyle=orthogonalEdgeStyle;rounded=0;orthogonalLoop=1;jettySize=auto;html=1;" edge="1" parent="1" source="ZSj5ty7bktF3lgNFsP_j-85" target="ZSj5ty7bktF3lgNFsP_j-86">
          <mxGeometry relative="1" as="geometry" />
        </mxCell>
        <mxCell id="ZSj5ty7bktF3lgNFsP_j-85" value="print max" style="shape=parallelogram;perimeter=parallelogramPerimeter;whiteSpace=wrap;html=1;fixedSize=1;" vertex="1" parent="1">
          <mxGeometry x="321" y="489" width="120" height="60" as="geometry" />
        </mxCell>
        <mxCell id="ZSj5ty7bktF3lgNFsP_j-86" value="End" style="ellipse;whiteSpace=wrap;html=1;" vertex="1" parent="1">
          <mxGeometry x="508" y="495" width="80" height="48" as="geometry" />
        </mxCell>
        <mxCell id="ZSj5ty7bktF3lgNFsP_j-90" value="" style="edgeStyle=orthogonalEdgeStyle;rounded=0;orthogonalLoop=1;jettySize=auto;html=1;" edge="1" parent="1" source="ZSj5ty7bktF3lgNFsP_j-61" target="ZSj5ty7bktF3lgNFsP_j-89">
          <mxGeometry relative="1" as="geometry">
            <mxPoint x="150" y="230" as="sourcePoint" />
            <mxPoint x="150" y="376" as="targetPoint" />
          </mxGeometry>
        </mxCell>
        <mxCell id="ZSj5ty7bktF3lgNFsP_j-92" value="" style="edgeStyle=orthogonalEdgeStyle;rounded=0;orthogonalLoop=1;jettySize=auto;html=1;" edge="1" parent="1" source="ZSj5ty7bktF3lgNFsP_j-89" target="ZSj5ty7bktF3lgNFsP_j-91">
          <mxGeometry relative="1" as="geometry" />
        </mxCell>
        <mxCell id="ZSj5ty7bktF3lgNFsP_j-89" value="array" style="shape=parallelogram;perimeter=parallelogramPerimeter;whiteSpace=wrap;html=1;fixedSize=1;" vertex="1" parent="1">
          <mxGeometry x="90" y="261" width="120" height="60" as="geometry" />
        </mxCell>
        <mxCell id="ZSj5ty7bktF3lgNFsP_j-93" value="" style="edgeStyle=orthogonalEdgeStyle;rounded=0;orthogonalLoop=1;jettySize=auto;html=1;" edge="1" parent="1" source="ZSj5ty7bktF3lgNFsP_j-91" target="ZSj5ty7bktF3lgNFsP_j-68">
          <mxGeometry relative="1" as="geometry" />
        </mxCell>
        <mxCell id="ZSj5ty7bktF3lgNFsP_j-91" value="max = array[0][0]&lt;br&gt;i = 0&lt;br&gt;j = 0" style="whiteSpace=wrap;html=1;" vertex="1" parent="1">
          <mxGeometry x="90" y="357" width="120" height="60" as="geometry" />
        </mxCell>
      </root>
    </mxGraphModel>
  </diagram>
</mxfile>
